<svg xmlns="http://www.w3.org/2000/svg" width="1280" height="720" viewBox="0 0 1280 720" font-family="'Segoe UI', system-ui, -apple-system, Helvetica, Arial, sans-serif"><defs>
  <linearGradient id="bg" x1="0" y1="0" x2="0" y2="1">
    <stop offset="0" stop-color="#0a0e16"/><stop offset="1" stop-color="#0d1117"/>
  </linearGradient>
  <linearGradient id="accent" x1="0" y1="0" x2="1" y2="0">
    <stop offset="0" stop-color="#2dd4bf"/><stop offset="0.5" stop-color="#4493f8"/><stop offset="1" stop-color="#2dd4bf"/>
  </linearGradient>
  <pattern id="grid" width="32" height="32" patternUnits="userSpaceOnUse">
    <path d="M 32 0 L 0 0 0 32" fill="none" stroke="#161d27" stroke-width="1"/>
  </pattern>
  <filter id="soft" x="-20%" y="-20%" width="140%" height="140%">
    <feDropShadow dx="0" dy="4" stdDeviation="8" flood-color="#000000" flood-opacity="0.45"/>
  </filter>
  <filter id="glow" x="-60%" y="-60%" width="220%" height="220%">
    <feDropShadow dx="0" dy="0" stdDeviation="6" flood-color="#2dd4bf" flood-opacity="0.5"/>
  </filter>
</defs><rect x="0" y="0" width="1280" height="720" fill="url(#bg)"/><rect x="0" y="0" width="1280" height="720" fill="url(#grid)" opacity="0.5"/><rect x="0" y="0" width="1280" height="4" fill="url(#accent)"/><text x="1252" y="698" font-size="12.5" fill="#69788b" font-family="'SF Mono','JetBrains Mono','Fira Code',Menlo,Consolas,'Liberation Mono',monospace" font-weight="400" text-anchor="end">github.com/TAIPANBOX/verdryx</text><text x="40" y="56" font-size="28" fill="#e6edf3" font-family="'Segoe UI', system-ui, -apple-system, Helvetica, Arial, sans-serif" font-weight="700" text-anchor="start">Cost per outcome</text><text x="40" y="84" font-size="15" fill="#9aa7b8" font-family="'Segoe UI', system-ui, -apple-system, Helvetica, Arial, sans-serif" font-weight="400" text-anchor="start">TokenFuse traces reduce to a dollar figure per resolved, escalated and abandoned case.</text><line x1="40" y1="100" x2="1240" y2="100" stroke="#222b38" stroke-width="1"/><text x="60" y="138" font-size="12" fill="#2dd4bf" font-family="'SF Mono','JetBrains Mono','Fira Code',Menlo,Consolas,'Liberation Mono',monospace" font-weight="700" text-anchor="start" letter-spacing="1.5">TOKENFUSE TRACE</text><rect x="60" y="150" width="250" height="92" rx="12" ry="12" fill="#1b2331" stroke="#283341" stroke-width="1" filter="url(#soft)"/><rect x="60" y="150" width="250" height="4" rx="2" ry="2" fill="#2dd4bf"/><text x="185" y="194" font-size="14.5" fill="#e6edf3" font-family="'Segoe UI', system-ui, -apple-system, Helvetica, Arial, sans-serif" font-weight="700" text-anchor="middle">Parquet trace</text><text x="185" y="214" font-size="11" fill="#69788b" font-family="'SF Mono','JetBrains Mono','Fira Code',Menlo,Consolas,'Liberation Mono',monospace" font-weight="400" text-anchor="middle">outcome · cost_microusd columns</text><text x="370" y="138" font-size="12" fill="#4493f8" font-family="'SF Mono','JetBrains Mono','Fira Code',Menlo,Consolas,'Liberation Mono',monospace" font-weight="700" text-anchor="start" letter-spacing="1.5">VERDRYX.COSTPER</text><rect x="370" y="150" width="250" height="92" rx="12" ry="12" fill="#1b2331" stroke="#283341" stroke-width="1" filter="url(#soft)"/><rect x="370" y="150" width="250" height="4" rx="2" ry="2" fill="#4493f8"/><text x="495" y="194" font-size="14.5" fill="#e6edf3" font-family="'Segoe UI', system-ui, -apple-system, Helvetica, Arial, sans-serif" font-weight="700" text-anchor="middle">read_parquet()</text><text x="495" y="214" font-size="11" fill="#69788b" font-family="'SF Mono','JetBrains Mono','Fira Code',Menlo,Consolas,'Liberation Mono',monospace" font-weight="400" text-anchor="middle">÷ 1,000,000 → cost_usd, drop untagged</text><text x="680" y="138" font-size="12" fill="#2dd4bf" font-family="'SF Mono','JetBrains Mono','Fira Code',Menlo,Consolas,'Liberation Mono',monospace" font-weight="700" text-anchor="start" letter-spacing="1.5">AGGREGATE</text><rect x="680" y="150" width="250" height="92" rx="12" ry="12" fill="#1b2331" stroke="#283341" stroke-width="1" filter="url(#soft)"/><rect x="680" y="150" width="250" height="4" rx="2" ry="2" fill="#2dd4bf"/><text x="805" y="194" font-size="14.5" fill="#e6edf3" font-family="'Segoe UI', system-ui, -apple-system, Helvetica, Arial, sans-serif" font-weight="700" text-anchor="middle">cost_per_outcome()</text><text x="805" y="214" font-size="11" fill="#69788b" font-family="'SF Mono','JetBrains Mono','Fira Code',Menlo,Consolas,'Liberation Mono',monospace" font-weight="400" text-anchor="middle">bucket by outcome tag, sum + mean</text><text x="990" y="138" font-size="12" fill="#3fb950" font-family="'SF Mono','JetBrains Mono','Fira Code',Menlo,Consolas,'Liberation Mono',monospace" font-weight="700" text-anchor="start" letter-spacing="1.5">REPORT</text><rect x="990" y="150" width="250" height="92" rx="12" ry="12" fill="#1b2331" stroke="#283341" stroke-width="1" filter="url(#soft)"/><rect x="990" y="150" width="250" height="4" rx="2" ry="2" fill="#3fb950"/><text x="1115" y="194" font-size="14.5" fill="#e6edf3" font-family="'Segoe UI', system-ui, -apple-system, Helvetica, Arial, sans-serif" font-weight="700" text-anchor="middle">CostPerOutcomeReport</text><text x="1115" y="214" font-size="11" fill="#69788b" font-family="'SF Mono','JetBrains Mono','Fira Code',Menlo,Consolas,'Liberation Mono',monospace" font-weight="400" text-anchor="middle">count · total · mean, per tag</text><line x1="310" y1="196.0" x2="360" y2="196.0" stroke="#2dd4bf" stroke-width="2"/><path d="M 360 190.0 L 370 196.0 L 360 202.0 Z" fill="#2dd4bf"/><line x1="620" y1="196.0" x2="670" y2="196.0" stroke="#2dd4bf" stroke-width="2"/><path d="M 670 190.0 L 680 196.0 L 670 202.0 Z" fill="#2dd4bf"/><line x1="930" y1="196.0" x2="980" y2="196.0" stroke="#2dd4bf" stroke-width="2"/><path d="M 980 190.0 L 990 196.0 L 980 202.0 Z" fill="#2dd4bf"/><line x1="40" y1="300" x2="1240" y2="300" stroke="#222b38" stroke-width="1"/><text x="40" y="330" font-size="13" fill="#9aa7b8" font-family="'Segoe UI', system-ui, -apple-system, Helvetica, Arial, sans-serif" font-weight="600" text-anchor="start">Named accessors on CostPerOutcomeReport</text><rect x="40" y="350" width="270" height="100" rx="12" ry="12" fill="#1b2331" stroke="#222b38" stroke-width="1" filter="url(#soft)"/><rect x="40" y="350" width="270" height="4" rx="2" ry="2" fill="#3fb950"/><text x="58" y="380" font-size="12.5" fill="#9aa7b8" font-family="'Segoe UI', system-ui, -apple-system, Helvetica, Arial, sans-serif" font-weight="600" text-anchor="start">resolved</text><text x="58" y="412" font-size="24" fill="#3fb950" font-family="'SF Mono','JetBrains Mono','Fira Code',Menlo,Consolas,'Liberation Mono',monospace" font-weight="700" text-anchor="start">$/case_resolved</text><text x="58" y="434" font-size="11" fill="#69788b" font-family="'SF Mono','JetBrains Mono','Fira Code',Menlo,Consolas,'Liberation Mono',monospace" font-weight="400" text-anchor="start">.resolved → OutcomeCost</text><rect x="350" y="350" width="270" height="100" rx="12" ry="12" fill="#1b2331" stroke="#222b38" stroke-width="1" filter="url(#soft)"/><rect x="350" y="350" width="270" height="4" rx="2" ry="2" fill="#e3b341"/><text x="368" y="380" font-size="12.5" fill="#9aa7b8" font-family="'Segoe UI', system-ui, -apple-system, Helvetica, Arial, sans-serif" font-weight="600" text-anchor="start">escalated</text><text x="368" y="412" font-size="24" fill="#e3b341" font-family="'SF Mono','JetBrains Mono','Fira Code',Menlo,Consolas,'Liberation Mono',monospace" font-weight="700" text-anchor="start">$/escalated</text><text x="368" y="434" font-size="11" fill="#69788b" font-family="'SF Mono','JetBrains Mono','Fira Code',Menlo,Consolas,'Liberation Mono',monospace" font-weight="400" text-anchor="start">.escalated → OutcomeCost</text><rect x="660" y="350" width="270" height="100" rx="12" ry="12" fill="#1b2331" stroke="#222b38" stroke-width="1" filter="url(#soft)"/><rect x="660" y="350" width="270" height="4" rx="2" ry="2" fill="#ff6b63"/><text x="678" y="380" font-size="12.5" fill="#9aa7b8" font-family="'Segoe UI', system-ui, -apple-system, Helvetica, Arial, sans-serif" font-weight="600" text-anchor="start">abandoned</text><text x="678" y="412" font-size="24" fill="#ff6b63" font-family="'SF Mono','JetBrains Mono','Fira Code',Menlo,Consolas,'Liberation Mono',monospace" font-weight="700" text-anchor="start">$/abandoned</text><text x="678" y="434" font-size="11" fill="#69788b" font-family="'SF Mono','JetBrains Mono','Fira Code',Menlo,Consolas,'Liberation Mono',monospace" font-weight="400" text-anchor="start">.abandoned → OutcomeCost</text><rect x="970" y="350" width="270" height="100" rx="12" ry="12" fill="#1b2331" stroke="#222b38" stroke-width="1" filter="url(#soft)"/><rect x="970" y="350" width="270" height="4" rx="2" ry="2" fill="#2dd4bf"/><text x="988" y="380" font-size="12.5" fill="#9aa7b8" font-family="'Segoe UI', system-ui, -apple-system, Helvetica, Arial, sans-serif" font-weight="600" text-anchor="start">overall</text><text x="988" y="412" font-size="24" fill="#2dd4bf" font-family="'SF Mono','JetBrains Mono','Fira Code',Menlo,Consolas,'Liberation Mono',monospace" font-weight="700" text-anchor="start">$/all cases</text><text x="988" y="434" font-size="11" fill="#69788b" font-family="'SF Mono','JetBrains Mono','Fira Code',Menlo,Consolas,'Liberation Mono',monospace" font-weight="400" text-anchor="start">.overall → pooled OutcomeCost</text><line x1="40" y1="500" x2="1240" y2="500" stroke="#222b38" stroke-width="1"/><text x="42" y="530" font-size="12" fill="#2dd4bf" font-family="'SF Mono','JetBrains Mono','Fira Code',Menlo,Consolas,'Liberation Mono',monospace" font-weight="700" text-anchor="start" letter-spacing="1.5">RELATED · JUDGE PRICING</text><rect x="60" y="542" width="220" height="80" rx="12" ry="12" fill="#1b2331" stroke="#283341" stroke-width="1" filter="url(#soft)"/><rect x="60" y="542" width="220" height="4" rx="2" ry="2" fill="#4493f8"/><text x="170" y="580" font-size="14.5" fill="#e6edf3" font-family="'Segoe UI', system-ui, -apple-system, Helvetica, Arial, sans-serif" font-weight="700" text-anchor="middle">llm_judge case</text><text x="170" y="600" font-size="11" fill="#69788b" font-family="'SF Mono','JetBrains Mono','Fira Code',Menlo,Consolas,'Liberation Mono',monospace" font-weight="400" text-anchor="middle">EvalCase.rubric</text><rect x="320" y="542" width="220" height="80" rx="12" ry="12" fill="#1b2331" stroke="#283341" stroke-width="1" filter="url(#soft)"/><rect x="320" y="542" width="220" height="4" rx="2" ry="2" fill="#4493f8"/><text x="430" y="580" font-size="14.5" fill="#e6edf3" font-family="'Segoe UI', system-ui, -apple-system, Helvetica, Arial, sans-serif" font-weight="700" text-anchor="middle">AnthropicAdapter.judge()</text><text x="430" y="600" font-size="11" fill="#69788b" font-family="'SF Mono','JetBrains Mono','Fira Code',Menlo,Consolas,'Liberation Mono',monospace" font-weight="400" text-anchor="middle">input + output tokens</text><rect x="580" y="542" width="220" height="80" rx="12" ry="12" fill="#1b2331" stroke="#283341" stroke-width="1" filter="url(#soft)"/><rect x="580" y="542" width="220" height="4" rx="2" ry="2" fill="#2dd4bf"/><text x="690" y="580" font-size="14.5" fill="#e6edf3" font-family="'Segoe UI', system-ui, -apple-system, Helvetica, Arial, sans-serif" font-weight="700" text-anchor="middle">PriceBook.price()</text><text x="690" y="600" font-size="11" fill="#69788b" font-family="'SF Mono','JetBrains Mono','Fira Code',Menlo,Consolas,'Liberation Mono',monospace" font-weight="400" text-anchor="middle">USD per Mtok, per model</text><rect x="840" y="542" width="220" height="80" rx="12" ry="12" fill="#1b2331" stroke="#283341" stroke-width="1" filter="url(#soft)"/><rect x="840" y="542" width="220" height="4" rx="2" ry="2" fill="#3fb950"/><text x="950" y="580" font-size="14.5" fill="#e6edf3" font-family="'Segoe UI', system-ui, -apple-system, Helvetica, Arial, sans-serif" font-weight="700" text-anchor="middle">Score.cost_usd</text><text x="950" y="600" font-size="11" fill="#69788b" font-family="'SF Mono','JetBrains Mono','Fira Code',Menlo,Consolas,'Liberation Mono',monospace" font-weight="400" text-anchor="middle">real $, not the 0.0 placeholder</text><line x1="280" y1="582.0" x2="310" y2="582.0" stroke="#4493f8" stroke-width="2"/><path d="M 310 576.0 L 320 582.0 L 310 588.0 Z" fill="#4493f8"/><line x1="540" y1="582.0" x2="570" y2="582.0" stroke="#4493f8" stroke-width="2"/><path d="M 570 576.0 L 580 582.0 L 570 588.0 Z" fill="#4493f8"/><line x1="800" y1="582.0" x2="830" y2="582.0" stroke="#2dd4bf" stroke-width="2"/><path d="M 830 576.0 L 840 582.0 L 830 588.0 Z" fill="#2dd4bf"/></svg>