<svg xmlns="http://www.w3.org/2000/svg" width="1280" height="720" viewBox="0 0 1280 720" font-family="'Segoe UI', system-ui, -apple-system, Helvetica, Arial, sans-serif"><defs>
  <linearGradient id="bg" x1="0" y1="0" x2="0" y2="1">
    <stop offset="0" stop-color="#0a0e16"/><stop offset="1" stop-color="#0d1117"/>
  </linearGradient>
  <linearGradient id="accent" x1="0" y1="0" x2="1" y2="0">
    <stop offset="0" stop-color="#2dd4bf"/><stop offset="0.5" stop-color="#4493f8"/><stop offset="1" stop-color="#2dd4bf"/>
  </linearGradient>
  <pattern id="grid" width="32" height="32" patternUnits="userSpaceOnUse">
    <path d="M 32 0 L 0 0 0 32" fill="none" stroke="#161d27" stroke-width="1"/>
  </pattern>
  <filter id="soft" x="-20%" y="-20%" width="140%" height="140%">
    <feDropShadow dx="0" dy="4" stdDeviation="8" flood-color="#000000" flood-opacity="0.45"/>
  </filter>
  <filter id="glow" x="-60%" y="-60%" width="220%" height="220%">
    <feDropShadow dx="0" dy="0" stdDeviation="6" flood-color="#2dd4bf" flood-opacity="0.5"/>
  </filter>
</defs><rect x="0" y="0" width="1280" height="720" fill="url(#bg)"/><rect x="0" y="0" width="1280" height="720" fill="url(#grid)" opacity="0.5"/><rect x="0" y="0" width="1280" height="4" fill="url(#accent)"/><text x="1252" y="698" font-size="12.5" fill="#69788b" font-family="'SF Mono','JetBrains Mono','Fira Code',Menlo,Consolas,'Liberation Mono',monospace" font-weight="400" text-anchor="end">github.com/TAIPANBOX/verdryx</text><text x="40" y="56" font-size="28" fill="#e6edf3" font-family="'Segoe UI', system-ui, -apple-system, Helvetica, Arial, sans-serif" font-weight="700" text-anchor="start">Verdict &amp; score classes</text><text x="40" y="84" font-size="15" fill="#9aa7b8" font-family="'Segoe UI', system-ui, -apple-system, Helvetica, Arial, sans-serif" font-weight="400" text-anchor="start">Every graded case and every drift check resolves to one of these named outcomes.</text><line x1="40" y1="100" x2="1240" y2="100" stroke="#222b38" stroke-width="1"/><rect x="40" y="250" width="250" height="220" rx="14" ry="14" fill="#141a23" stroke="#283341" stroke-width="1" filter="url(#soft)"/><text x="165" y="294" font-size="16" fill="#e6edf3" font-family="'Segoe UI', system-ui, -apple-system, Helvetica, Arial, sans-serif" font-weight="700" text-anchor="middle">EvalRun</text><text x="165" y="318" font-size="16" fill="#e6edf3" font-family="'Segoe UI', system-ui, -apple-system, Helvetica, Arial, sans-serif" font-weight="700" text-anchor="middle">Scores</text><circle cx="119" cy="376" r="9" fill="#1a212c" stroke="#ff6b63" stroke-width="2"/><circle cx="165" cy="392" r="9" fill="#1a212c" stroke="#3fb950" stroke-width="2"/><circle cx="211" cy="376" r="9" fill="#1a212c" stroke="#e3b341" stroke-width="2"/><circle cx="141" cy="422" r="9" fill="#1a212c" stroke="#2dd4bf" stroke-width="2"/><circle cx="193" cy="424" r="9" fill="#1a212c" stroke="#4493f8" stroke-width="2"/><text x="165" y="452" font-size="11.5" fill="#69788b" font-family="'SF Mono','JetBrains Mono','Fira Code',Menlo,Consolas,'Liberation Mono',monospace" font-weight="400" text-anchor="middle">graded · case by case</text><rect x="330" y="300" width="170" height="120" rx="14" ry="14" fill="#1a212c" stroke="#2dd4bf" stroke-width="1.6" filter="url(#glow)"/><text x="415" y="346" font-size="18" fill="#2dd4bf" font-family="'SF Mono','JetBrains Mono','Fira Code',Menlo,Consolas,'Liberation Mono',monospace" font-weight="700" text-anchor="middle">verdryx</text><text x="415" y="370" font-size="13.5" fill="#e6edf3" font-family="'Segoe UI', system-ui, -apple-system, Helvetica, Arial, sans-serif" font-weight="600" text-anchor="middle">verdict model</text><text x="415" y="390" font-size="10.5" fill="#69788b" font-family="'SF Mono','JetBrains Mono','Fira Code',Menlo,Consolas,'Liberation Mono',monospace" font-weight="400" text-anchor="middle">graders · drift · pricing</text><line x1="290" y1="360" x2="323" y2="360" stroke="#2dd4bf" stroke-width="2.2"/><path d="M 330 360 l -9 -5 l 0 10 z" fill="#2dd4bf"/><rect x="560" y="150" width="330" height="150" rx="14" ry="14" fill="#1b2331" stroke="#283341" stroke-width="1" filter="url(#soft)"/><rect x="560" y="150" width="6" height="150" rx="3" ry="3" fill="#3fb950" stroke="#283341" stroke-width="1"/><circle cx="594" cy="188" r="13" fill="none" stroke="#3fb950" stroke-width="2"/><circle cx="594" cy="188" r="4" fill="#3fb950"/><text x="618" y="186" font-size="17" fill="#e6edf3" font-family="'Segoe UI', system-ui, -apple-system, Helvetica, Arial, sans-serif" font-weight="700" text-anchor="start">case_resolved</text><text x="618" y="208" font-size="10" fill="#3fb950" font-family="'SF Mono','JetBrains Mono','Fira Code',Menlo,Consolas,'Liberation Mono',monospace" font-weight="700" text-anchor="start" letter-spacing="1.5">OUTCOME · SCORE 1.0</text><line x1="584" y1="226" x2="866" y2="226" stroke="#222b38" stroke-width="1"/><text x="584" y="250" font-size="13" fill="#e6edf3" font-family="'SF Mono','JetBrains Mono','Fira Code',Menlo,Consolas,'Liberation Mono',monospace" font-weight="600" text-anchor="start">OutcomeTagGrader default table</text><text x="584" y="274" font-size="12" fill="#69788b" font-family="'Segoe UI', system-ui, -apple-system, Helvetica, Arial, sans-serif" font-weight="400" text-anchor="start">the tag scoring 1.0 in DEFAULT_OUTCOME_SCORES</text><rect x="920" y="150" width="330" height="150" rx="14" ry="14" fill="#1b2331" stroke="#283341" stroke-width="1" filter="url(#soft)"/><rect x="920" y="150" width="6" height="150" rx="3" ry="3" fill="#e3b341" stroke="#283341" stroke-width="1"/><circle cx="954" cy="188" r="13" fill="none" stroke="#e3b341" stroke-width="2"/><circle cx="954" cy="188" r="4" fill="#e3b341"/><text x="978" y="186" font-size="17" fill="#e6edf3" font-family="'Segoe UI', system-ui, -apple-system, Helvetica, Arial, sans-serif" font-weight="700" text-anchor="start">escalated</text><text x="978" y="208" font-size="10" fill="#e3b341" font-family="'SF Mono','JetBrains Mono','Fira Code',Menlo,Consolas,'Liberation Mono',monospace" font-weight="700" text-anchor="start" letter-spacing="1.5">OUTCOME · SCORE 0.5</text><line x1="944" y1="226" x2="1226" y2="226" stroke="#222b38" stroke-width="1"/><text x="944" y="250" font-size="13" fill="#e6edf3" font-family="'SF Mono','JetBrains Mono','Fira Code',Menlo,Consolas,'Liberation Mono',monospace" font-weight="600" text-anchor="start">OutcomeTagGrader default table</text><text x="944" y="274" font-size="12" fill="#69788b" font-family="'Segoe UI', system-ui, -apple-system, Helvetica, Arial, sans-serif" font-weight="400" text-anchor="start">partial credit; handed off, not resolved</text><rect x="560" y="318" width="330" height="150" rx="14" ry="14" fill="#1b2331" stroke="#283341" stroke-width="1" filter="url(#soft)"/><rect x="560" y="318" width="6" height="150" rx="3" ry="3" fill="#f0544c" stroke="#283341" stroke-width="1"/><circle cx="594" cy="356" r="13" fill="none" stroke="#f0544c" stroke-width="2"/><circle cx="594" cy="356" r="4" fill="#f0544c"/><text x="618" y="354" font-size="17" fill="#e6edf3" font-family="'Segoe UI', system-ui, -apple-system, Helvetica, Arial, sans-serif" font-weight="700" text-anchor="start">abandoned</text><text x="618" y="376" font-size="10" fill="#f0544c" font-family="'SF Mono','JetBrains Mono','Fira Code',Menlo,Consolas,'Liberation Mono',monospace" font-weight="700" text-anchor="start" letter-spacing="1.5">OUTCOME · SCORE 0.0</text><line x1="584" y1="394" x2="866" y2="394" stroke="#222b38" stroke-width="1"/><text x="584" y="418" font-size="13" fill="#e6edf3" font-family="'SF Mono','JetBrains Mono','Fira Code',Menlo,Consolas,'Liberation Mono',monospace" font-weight="600" text-anchor="start">OutcomeTagGrader default table</text><text x="584" y="442" font-size="12" fill="#69788b" font-family="'Segoe UI', system-ui, -apple-system, Helvetica, Arial, sans-serif" font-weight="400" text-anchor="start">unrecognized tags also default to 0.0</text><rect x="920" y="318" width="330" height="150" rx="14" ry="14" fill="#1b2331" stroke="#283341" stroke-width="1" filter="url(#soft)"/><rect x="920" y="318" width="6" height="150" rx="3" ry="3" fill="#3fb950" stroke="#283341" stroke-width="1"/><circle cx="954" cy="356" r="13" fill="none" stroke="#3fb950" stroke-width="2"/><circle cx="954" cy="356" r="4" fill="#3fb950"/><text x="978" y="354" font-size="17" fill="#e6edf3" font-family="'Segoe UI', system-ui, -apple-system, Helvetica, Arial, sans-serif" font-weight="700" text-anchor="start">on-track</text><text x="978" y="376" font-size="10" fill="#3fb950" font-family="'SF Mono','JetBrains Mono','Fira Code',Menlo,Consolas,'Liberation Mono',monospace" font-weight="700" text-anchor="start" letter-spacing="1.5">DRIFT VERDICT</text><line x1="944" y1="394" x2="1226" y2="394" stroke="#222b38" stroke-width="1"/><text x="944" y="418" font-size="13" fill="#e6edf3" font-family="'SF Mono','JetBrains Mono','Fira Code',Menlo,Consolas,'Liberation Mono',monospace" font-weight="600" text-anchor="start">compute_drift(), delta &gt; −threshold</text><text x="944" y="442" font-size="12" fill="#69788b" font-family="'Segoe UI', system-ui, -apple-system, Helvetica, Arial, sans-serif" font-weight="400" text-anchor="start">pooled mean holds against the baseline</text><rect x="560" y="486" width="330" height="150" rx="14" ry="14" fill="#1b2331" stroke="#283341" stroke-width="1" filter="url(#soft)"/><rect x="560" y="486" width="6" height="150" rx="3" ry="3" fill="#ff6b63" stroke="#283341" stroke-width="1"/><circle cx="594" cy="524" r="13" fill="none" stroke="#ff6b63" stroke-width="2"/><circle cx="594" cy="524" r="4" fill="#ff6b63"/><text x="618" y="522" font-size="17" fill="#e6edf3" font-family="'Segoe UI', system-ui, -apple-system, Helvetica, Arial, sans-serif" font-weight="700" text-anchor="start">regressed</text><text x="618" y="544" font-size="10" fill="#ff6b63" font-family="'SF Mono','JetBrains Mono','Fira Code',Menlo,Consolas,'Liberation Mono',monospace" font-weight="700" text-anchor="start" letter-spacing="1.5">DRIFT VERDICT</text><line x1="584" y1="562" x2="866" y2="562" stroke="#222b38" stroke-width="1"/><text x="584" y="586" font-size="13" fill="#e6edf3" font-family="'SF Mono','JetBrains Mono','Fira Code',Menlo,Consolas,'Liberation Mono',monospace" font-weight="600" text-anchor="start">compute_drift(), delta ≤ −threshold</text><text x="584" y="610" font-size="12" fill="#69788b" font-family="'Segoe UI', system-ui, -apple-system, Helvetica, Arial, sans-serif" font-weight="400" text-anchor="start">emits a quality_drift event, severity high</text><rect x="920" y="486" width="330" height="150" rx="14" ry="14" fill="#1b2331" stroke="#283341" stroke-width="1" filter="url(#soft)"/><rect x="920" y="486" width="6" height="150" rx="3" ry="3" fill="#2dd4bf" stroke="#283341" stroke-width="1"/><circle cx="954" cy="524" r="13" fill="none" stroke="#2dd4bf" stroke-width="2"/><circle cx="954" cy="524" r="4" fill="#2dd4bf"/><text x="978" y="522" font-size="17" fill="#e6edf3" font-family="'Segoe UI', system-ui, -apple-system, Helvetica, Arial, sans-serif" font-weight="700" text-anchor="start">LLM-judged score</text><text x="978" y="544" font-size="10" fill="#2dd4bf" font-family="'SF Mono','JetBrains Mono','Fira Code',Menlo,Consolas,'Liberation Mono',monospace" font-weight="700" text-anchor="start" letter-spacing="1.5">CONTINUOUS 0.0–1.0</text><line x1="944" y1="562" x2="1226" y2="562" stroke="#222b38" stroke-width="1"/><text x="944" y="586" font-size="13" fill="#e6edf3" font-family="'SF Mono','JetBrains Mono','Fira Code',Menlo,Consolas,'Liberation Mono',monospace" font-weight="600" text-anchor="start">LLMJudgeGrader against a rubric</text><text x="944" y="610" font-size="12" fill="#69788b" font-family="'Segoe UI', system-ui, -apple-system, Helvetica, Arial, sans-serif" font-weight="400" text-anchor="start">priced against verdryx.pricing.PriceBook</text><path d="M 500 360 C 530 360, 530 225, 554 225" fill="none" stroke="#283341" stroke-width="1.8" opacity="0.55"/><path d="M 560 225 l -9 -5 l 0 10 z" fill="#283341"/><path d="M 500 360 C 530 360, 530 393, 554 393" fill="none" stroke="#283341" stroke-width="1.8" opacity="0.55"/><path d="M 560 393 l -9 -5 l 0 10 z" fill="#283341"/><path d="M 500 360 C 530 360, 530 561, 554 561" fill="none" stroke="#283341" stroke-width="1.8" opacity="0.55"/><path d="M 560 561 l -9 -5 l 0 10 z" fill="#283341"/></svg>